<svg xmlns="http://www.w3.org/2000/svg" viewBox="0 0 256 256" width="256" height="256" role="img" aria-labelledby="wax-seal-frame-title"><title id="wax-seal-frame-title">Empty wax seal frame</title><defs>
<linearGradient id="wax-seal-frame-gold" x1="0" y1="0" x2=".85" y2="1" gradientUnits="objectBoundingBox"><stop stop-color="#fff0b5"/><stop offset=".24" stop-color="#d4a017"/><stop offset=".48" stop-color="#b57a25"/><stop offset=".62" stop-color="#edc975"/><stop offset="1" stop-color="#805025"/></linearGradient>
<linearGradient id="wax-seal-frame-paper" x2=".8" y2="1"><stop stop-color="#fff5db"/><stop offset=".55" stop-color="#f5ecd7"/><stop offset="1" stop-color="#cbb185"/></linearGradient>
<linearGradient id="wax-seal-frame-navy" x2="1" y2="1"><stop stop-color="#344b6a"/><stop offset=".55" stop-color="#1b2a4a"/><stop offset="1" stop-color="#101b30"/></linearGradient>
<pattern id="wax-seal-frame-hatch" width="5" height="5" patternUnits="userSpaceOnUse" patternTransform="rotate(24)"><path d="M0 0V5" stroke="#1b2a4a" stroke-width=".7" opacity=".6"/></pattern>
<filter id="wax-seal-frame-grain" x="-5%" y="-5%" width="110%" height="110%"><feTurbulence type="fractalNoise" baseFrequency=".72" numOctaves="3" seed="17" result="noise"/><feColorMatrix in="noise" type="saturate" values="0"/><feComponentTransfer><feFuncR type="linear" slope=".3" intercept=".74"/><feFuncG type="linear" slope=".3" intercept=".74"/><feFuncB type="linear" slope=".3" intercept=".74"/></feComponentTransfer><feBlend in="SourceGraphic" mode="multiply"/><feComposite in2="SourceGraphic" operator="in"/></filter><filter id="wax-seal-frame-mist" x="-25%" y="-50%" width="150%" height="200%"><feGaussianBlur stdDeviation="5"/></filter>
</defs><g filter="url(#wax-seal-frame-grain)"><path d="M226 128L215.8992501923052 151.5525331043294L212.870489570875 177L192.34671708797583 192.34671708797583L177 212.87048957087498L151.5525331043294 215.8992501923052L128 226L104.44746689567063 215.8992501923052L79.00000000000003 212.870489570875L63.65328291202418 192.34671708797583L43.129510429125006 177L40.1007498076948 151.55253310432943L30 128L40.10074980769478 104.4474668956706L43.12951042912499 79.00000000000003L63.65328291202414 63.65328291202421L78.99999999999996 43.129510429125034L104.44746689567063 40.10074980769478L127.99999999999999 30L151.55253310432934 40.10074980769477L177 43.12951042912502L192.3467170879758 63.65328291202417L212.87048957087495 78.99999999999996L215.8992501923052 104.44746689567054Z M196 128A68 68 0 1 0 60 128A68 68 0 1 0 196 128Z" fill="url(#wax-seal-frame-gold)" stroke="#1B2A4A" stroke-width="2.4" stroke-linecap="round" stroke-linejoin="round" fill-rule="evenodd"/><circle cx="128" cy="128" r="90" fill="none" stroke="#1B2A4A" stroke-width="1.1" /><circle cx="128" cy="128" r="75" fill="none" stroke="#1B2A4A" stroke-width="3" /><circle cx="128" cy="128" r="70" fill="none" stroke="#1B2A4A" stroke-width="1" /><path d="M211 128L215 128" fill="none" stroke="#1B2A4A" stroke-width="0.85" stroke-linecap="round" stroke-linejoin="round" opacity=".7"/><path d="M210.28992349402625 138.83367395426427L214.25570293952148 139.35577872314448" fill="none" stroke="#1B2A4A" stroke-width="0.85" stroke-linecap="round" stroke-linejoin="round" opacity=".7"/><path d="M208.17184358199268 149.4819807435092L212.03554688714894 150.51725692391932" fill="none" stroke="#1B2A4A" stroke-width="0.85" stroke-linecap="round" stroke-linejoin="round" opacity=".7"/><path d="M204.6820011984368 159.76272488630246L208.37751932848195 161.2934586157628" fill="none" stroke="#1B2A4A" stroke-width="0.85" stroke-linecap="round" stroke-linejoin="round" opacity=".7"/><path d="M199.88010851410843 169.5L203.34421012924616 171.5" fill="none" stroke="#1B2A4A" stroke-width="0.85" stroke-linecap="round" stroke-linejoin="round" opacity=".7"/><path d="M193.84832724417254 178.52719860772382L197.02174060533747 180.96224432375868" fill="none" stroke="#1B2A4A" stroke-width="0.85" stroke-linecap="round" stroke-linejoin="round" opacity=".7"/><path d="M186.68986283848346 186.68986283848344L189.51828996322965 189.51828996322962" fill="none" stroke="#1B2A4A" stroke-width="0.85" stroke-linecap="round" stroke-linejoin="round" opacity=".7"/><path d="M178.52719860772382 193.84832724417254L180.96224432375868 197.02174060533747" fill="none" stroke="#1B2A4A" stroke-width="0.85" stroke-linecap="round" stroke-linejoin="round" opacity=".7"/><path d="M169.5 199.8801085141084L171.5 203.34421012924616" fill="none" stroke="#1B2A4A" stroke-width="0.85" stroke-linecap="round" stroke-linejoin="round" opacity=".7"/><path d="M159.76272488630246 204.6820011984368L161.2934586157628 208.37751932848195" fill="none" stroke="#1B2A4A" stroke-width="0.85" stroke-linecap="round" stroke-linejoin="round" opacity=".7"/><path d="M149.4819807435092 208.17184358199268L150.51725692391932 212.03554688714894" fill="none" stroke="#1B2A4A" stroke-width="0.85" stroke-linecap="round" stroke-linejoin="round" opacity=".7"/><path d="M138.8336739542643 210.28992349402625L139.3557787231445 214.25570293952148" fill="none" stroke="#1B2A4A" stroke-width="0.85" stroke-linecap="round" stroke-linejoin="round" opacity=".7"/><path d="M128 211L128 215" fill="none" stroke="#1B2A4A" stroke-width="0.85" stroke-linecap="round" stroke-linejoin="round" opacity=".7"/><path d="M117.16632604573572 210.28992349402625L116.64422127685552 214.25570293952148" fill="none" stroke="#1B2A4A" stroke-width="0.85" stroke-linecap="round" stroke-linejoin="round" opacity=".7"/><path d="M106.51801925649079 208.17184358199268L105.48274307608071 212.03554688714894" fill="none" stroke="#1B2A4A" stroke-width="0.85" stroke-linecap="round" stroke-linejoin="round" opacity=".7"/><path d="M96.23727511369756 204.6820011984368L94.70654138423721 208.37751932848195" fill="none" stroke="#1B2A4A" stroke-width="0.85" stroke-linecap="round" stroke-linejoin="round" opacity=".7"/><path d="M86.50000000000003 199.88010851410843L84.50000000000003 203.34421012924616" fill="none" stroke="#1B2A4A" stroke-width="0.85" stroke-linecap="round" stroke-linejoin="round" opacity=".7"/><path d="M77.47280139227618 193.84832724417254L75.0377556762413 197.02174060533747" fill="none" stroke="#1B2A4A" stroke-width="0.85" stroke-linecap="round" stroke-linejoin="round" opacity=".7"/><path d="M69.31013716151656 186.68986283848346L66.48171003677038 189.51828996322965" fill="none" stroke="#1B2A4A" stroke-width="0.85" stroke-linecap="round" stroke-linejoin="round" opacity=".7"/><path d="M62.15167275582749 178.52719860772385L58.978259394662544 180.9622443237587" fill="none" stroke="#1B2A4A" stroke-width="0.85" stroke-linecap="round" stroke-linejoin="round" opacity=".7"/><path d="M56.119891485891586 169.5L52.655789870753836 171.5" fill="none" stroke="#1B2A4A" stroke-width="0.85" stroke-linecap="round" stroke-linejoin="round" opacity=".7"/><path d="M51.317998801563206 159.76272488630246L47.62248067151805 161.29345861576283" fill="none" stroke="#1B2A4A" stroke-width="0.85" stroke-linecap="round" stroke-linejoin="round" opacity=".7"/><path d="M47.82815641800734 149.48198074350924L43.96445311285106 150.51725692391932" fill="none" stroke="#1B2A4A" stroke-width="0.85" stroke-linecap="round" stroke-linejoin="round" opacity=".7"/><path d="M45.71007650597373 138.83367395426433L41.7442970604785 139.3557787231445" fill="none" stroke="#1B2A4A" stroke-width="0.85" stroke-linecap="round" stroke-linejoin="round" opacity=".7"/><path d="M45 128L41 128" fill="none" stroke="#1B2A4A" stroke-width="0.85" stroke-linecap="round" stroke-linejoin="round" opacity=".7"/><path d="M45.71007650597373 117.1663260457357L41.7442970604785 116.64422127685549" fill="none" stroke="#1B2A4A" stroke-width="0.85" stroke-linecap="round" stroke-linejoin="round" opacity=".7"/><path d="M47.828156418007325 106.51801925649077L43.96445311285106 105.4827430760807" fill="none" stroke="#1B2A4A" stroke-width="0.85" stroke-linecap="round" stroke-linejoin="round" opacity=".7"/><path d="M51.31799880156319 96.23727511369756L47.62248067151805 94.7065413842372" fill="none" stroke="#1B2A4A" stroke-width="0.85" stroke-linecap="round" stroke-linejoin="round" opacity=".7"/><path d="M56.11989148589157 86.50000000000003L52.65578987075382 84.50000000000003" fill="none" stroke="#1B2A4A" stroke-width="0.85" stroke-linecap="round" stroke-linejoin="round" opacity=".7"/><path d="M62.15167275582748 77.47280139227618L58.978259394662544 75.0377556762413" fill="none" stroke="#1B2A4A" stroke-width="0.85" stroke-linecap="round" stroke-linejoin="round" opacity=".7"/><path d="M69.31013716151652 69.3101371615166L66.48171003677032 66.48171003677041" fill="none" stroke="#1B2A4A" stroke-width="0.85" stroke-linecap="round" stroke-linejoin="round" opacity=".7"/><path d="M77.47280139227617 62.151672755827505L75.03775567624129 58.97825939466256" fill="none" stroke="#1B2A4A" stroke-width="0.85" stroke-linecap="round" stroke-linejoin="round" opacity=".7"/><path d="M86.49999999999997 56.1198914858916L84.49999999999997 52.65578987075385" fill="none" stroke="#1B2A4A" stroke-width="0.85" stroke-linecap="round" stroke-linejoin="round" opacity=".7"/><path d="M96.23727511369756 51.31799880156319L94.70654138423721 47.62248067151805" fill="none" stroke="#1B2A4A" stroke-width="0.85" stroke-linecap="round" stroke-linejoin="round" opacity=".7"/><path d="M106.51801925649079 47.828156418007325L105.48274307608071 43.96445311285106" fill="none" stroke="#1B2A4A" stroke-width="0.85" stroke-linecap="round" stroke-linejoin="round" opacity=".7"/><path d="M117.16632604573572 45.71007650597373L116.6442212768555 41.7442970604785" fill="none" stroke="#1B2A4A" stroke-width="0.85" stroke-linecap="round" stroke-linejoin="round" opacity=".7"/><path d="M127.99999999999999 45L127.99999999999999 41" fill="none" stroke="#1B2A4A" stroke-width="0.85" stroke-linecap="round" stroke-linejoin="round" opacity=".7"/><path d="M138.83367395426424 45.71007650597373L139.35577872314445 41.74429706047849" fill="none" stroke="#1B2A4A" stroke-width="0.85" stroke-linecap="round" stroke-linejoin="round" opacity=".7"/><path d="M149.48198074350918 47.828156418007325L150.51725692391926 43.96445311285105" fill="none" stroke="#1B2A4A" stroke-width="0.85" stroke-linecap="round" stroke-linejoin="round" opacity=".7"/><path d="M159.7627248863024 51.31799880156318L161.29345861576275 47.62248067151803" fill="none" stroke="#1B2A4A" stroke-width="0.85" stroke-linecap="round" stroke-linejoin="round" opacity=".7"/><path d="M169.5 56.1198914858916L171.5 52.655789870753836" fill="none" stroke="#1B2A4A" stroke-width="0.85" stroke-linecap="round" stroke-linejoin="round" opacity=".7"/><path d="M178.52719860772373 62.151672755827434L180.96224432375863 58.97825939466249" fill="none" stroke="#1B2A4A" stroke-width="0.85" stroke-linecap="round" stroke-linejoin="round" opacity=".7"/><path d="M186.68986283848344 69.31013716151654L189.51828996322962 66.48171003677035" fill="none" stroke="#1B2A4A" stroke-width="0.85" stroke-linecap="round" stroke-linejoin="round" opacity=".7"/><path d="M193.84832724417248 77.47280139227617L197.02174060533744 75.03775567624129" fill="none" stroke="#1B2A4A" stroke-width="0.85" stroke-linecap="round" stroke-linejoin="round" opacity=".7"/><path d="M199.88010851410837 86.49999999999997L203.34421012924614 84.49999999999997" fill="none" stroke="#1B2A4A" stroke-width="0.85" stroke-linecap="round" stroke-linejoin="round" opacity=".7"/><path d="M204.6820011984368 96.23727511369756L208.37751932848195 94.7065413842372" fill="none" stroke="#1B2A4A" stroke-width="0.85" stroke-linecap="round" stroke-linejoin="round" opacity=".7"/><path d="M208.17184358199265 106.5180192564907L212.03554688714894 105.48274307608062" fill="none" stroke="#1B2A4A" stroke-width="0.85" stroke-linecap="round" stroke-linejoin="round" opacity=".7"/><path d="M210.28992349402625 117.16632604573572L214.25570293952148 116.6442212768555" fill="none" stroke="#1B2A4A" stroke-width="0.85" stroke-linecap="round" stroke-linejoin="round" opacity=".7"/><path d="M128 40 Q130 44 134 46 Q130 48 128 52 Q126 48 122 46 Q126 44 128 40Z" fill="url(#wax-seal-frame-gold)" stroke="#1B2A4A" stroke-width="1.1" stroke-linecap="round" stroke-linejoin="round" /><path d="M128 204 Q130 208 134 210 Q130 212 128 216 Q126 212 122 210 Q126 208 128 204Z" fill="url(#wax-seal-frame-gold)" stroke="#1B2A4A" stroke-width="1.1" stroke-linecap="round" stroke-linejoin="round" /><path d="M46 122 Q48 126 52 128 Q48 130 46 134 Q44 130 40 128 Q44 126 46 122Z" fill="url(#wax-seal-frame-gold)" stroke="#1B2A4A" stroke-width="1.1" stroke-linecap="round" stroke-linejoin="round" /><path d="M210 122 Q212 126 216 128 Q212 130 210 134 Q208 130 204 128 Q208 126 210 122Z" fill="url(#wax-seal-frame-gold)" stroke="#1B2A4A" stroke-width="1.1" stroke-linecap="round" stroke-linejoin="round" /></g></svg>